<svg xmlns="http://www.w3.org/2000/svg" viewBox="76.6 24.3 1544 215" enable-background="new 76.6 24.3 1544 215"><path fill="#00ADEF" d="M76.6 24.3h1544v215H76.6z"/><g fill="#fff"><path d="M353.2 156.9c1.1 0 1.9.2 2.6.5l.4-1.3c-.4-.2-1.4-.6-3-.6-3.9 0-6.6 2.7-6.6 6.7 0 4.2 2.7 6.4 6.3 6.4 1.5 0 2.7-.3 3.3-.6l-.3-1.3c-.7.3-1.7.5-2.7.5-3.1 0-4.9-2-4.9-5.1-.1-3.3 1.9-5.2 4.9-5.2zm24.2 4.2h-6.1v-5.3h-1.6v12.7h1.6v-5.9h6.1v5.9h1.7v-12.7h-1.7v5.3zm23.7 2.2c0 2.8-1.2 4-3.1 4-1.7 0-3-1.2-3-4v-7.5h-1.7v7.5c0 3.9 2 5.4 4.6 5.4 2.7 0 4.8-1.6 4.8-5.5v-7.4H401v7.5h.1zm21.5-.9c1.3-.5 2.4-1.6 2.4-3.3 0-1-.4-1.8-1-2.4-.8-.7-1.9-1-3.7-1-1.1 0-2.3.1-3.1.3v12.5h1.6V163h1.5c1.5.1 2.2.7 2.5 2.5.4 1.6.6 2.7.8 3h1.7c-.3-.5-.6-1.7-1-3.5-.2-1.4-.8-2.3-1.7-2.6zm-2.1-.7h-1.7v-4.6c.3-.1.8-.2 1.6-.2 1.7 0 2.9.7 2.9 2.4 0 1.5-1.1 2.4-2.8 2.4zm24.2-4.8c1.1 0 1.9.2 2.6.5l.4-1.3c-.4-.2-1.4-.6-3-.6-3.9 0-6.6 2.7-6.6 6.7 0 4.2 2.7 6.4 6.3 6.4 1.5 0 2.7-.3 3.3-.6l-.3-1.3c-.7.3-1.7.5-2.7.5-3.1 0-4.9-2-4.9-5.1 0-3.3 1.9-5.2 4.9-5.2zm24.3-1.1v5.3h-6.1v-5.3h-1.6v12.7h1.6v-5.9h6.1v5.9h1.7v-12.7H469zM496.5 128.4c-3.2 1.1-5.9 2.1-10.2 1.9-2.5-.1-5-.5-7.4-.7-2.5-.3-4.9-.7-7.4-.7-9.6 0-16.2 2.8-23.3 5.3-.9.3-2 1-3 .6.4-.8 1.2-1.2 1.9-1.7 3.5-2.6 6.5-5.2 9.1-8.9 1-1.5 1.9-3.3 1.4-5.5-.3-1.3-1.2-2.5-2.5-3.1-1.5-.7-5.5-.6-7.1-.2-2 .5-3.7 1.6-5.6 2.4-1.8.8-3.3 2.1-4.8 3.3-2.3 1.8-4.3 3.8-5.9 6.1-.5.8-.9 1.8-1.6 2.5-.6.6-1.6 1-2.5 1.6-.8.5-2 1.4-2.9 1.3-1.2-.1-2.1-2.4-1.9-3.9.2-1 1.4-1.9 1.9-2.4 1.6-1.8 2.7-2.7 4.2-4.4.8-.8 1.4-1.7 2-2.4 2.4-2.9 4.9-6 7.8-9.6 1.2-1.5 2.3-3.4 3.5-5.1 1.2-1.7 2.3-3.7 3.2-5.5.4-.9 1.1-1.8 1.5-2.9 1-3 2.8-7.2.4-10.3-1.2-1.5-2.8-3-4.7-1.9-1.9 1.1-3.7 2.4-5.4 3.8-7 5.7-12.1 13.5-16 21.6-.5 1-1.3 4.2-2.4 4.6-.6.2-1.4.1-2 .2-3.7.3-6.2 1.2-8.8 2.4-1.1.5-2.2.8-3.1 1.4-1.8 1.1-3.7 2.4-5.3 3.7-1.6 1.3-3 3-4.7 4.3-1.4 1.1-3.6 1.8-5.4 2.6-.7.3-1.5.8-2.7 1.1-.9.3-2.4.9-2.9.4s.3-2.8.6-3.6c.5-1.4 1.1-2.4 1.3-3.4.7-2.7-.2-5.7-2.4-6.4-1.5-.5-2.9 0-4.2.7-.9.4-1.8.7-2.5 1.1-.9.5-1.6 1.5-2.8 2.1-.9.5-2 .9-3 1.4-2.2 1-3.6 2-5.8 3.1-.8.4-2.4 1.5-3.1 1.4-.7-.1-1.5-1.5-1.6-2.4-.3-2 1.2-3.2 2.4-4.2 1-.8 2.2-2.1 3.9-1.7.7.1.8.6 1.2 1.1 1.3 1.7 4.1.8 5.5-1.1.4-.5.7-1.2 1.1-1.8.4-.6.8-1.3 1-1.9.9-3.2-2.2-4.6-5-4.4-.7 0-1.5.3-2.2.4-2.5.3-4.4.9-6.4 1.5-6.9 2.1-13.1 4-19.3 6.9-1 .5-3 1.6-3.8 1.5-1-.1-1.3-1.6-2.5-1.8-1.6-.3-3.3.7-4.2 1.1-.5.2-1.1.4-1.5.7-1 .7-2.8 2.7-3.4 3.7-.6 1-.6 1.9-1.3 2.7-.6.6-1.7 1-2.6 1.6-1.6.9-4.2 2.1-5.6 2.9-.8.4-2.5 1.4-3 .2.3-2.1 1.6-3.7 2.8-5.2 2.4-3.1 4.4-6.2 6.9-9.2 1.2-1.5 2.5-3.1 2.9-5.1.6-3.1-.8-7.4-3.3-8.2-1.6-.5-3.5.3-3.8 1.6-.1.4.1 1.2.1 1.7-.2 2.4-1.5 5.1-2.8 6.4-.9 1-2.2 1.8-3.3 2.8-5.4 4.7-11.1 9.2-17.7 12.5-1.6.8-2.5 1.1-4.2 1.9-.5.2-1.3.6-2.3.7-3.2.5-1.8-1.8-.8-3.3.6-.9 1-1.8 1.5-2.4 1.2-1.7 2.5-3.1 3.2-4.7.3-.7.6-2 .3-2.9-.2-1-.9-1.4-1.6-1.8-.6-.4-1.1-.9-2.1-.9-1.1 0-1.8 1.4-2.6 2.1-2.6 2.4-4.8 4.2-7.4 6.4-2.5 2-4.8 4.3-7.8 6-.7.4-2.5 1.6-3.3 1-.8-.6.4-2.8 1.1-3.7.7-1 1.5-2 2.4-2.8 4.9-4.7 11-8.1 18.1-10 1.6-.4 2.8-.6 3.3-2 .7-2.1-2.3-3.8-3.7-4.3-.8-.3-2.4-.5-3.7-.4-1.3.1-2.5 0-3.6.2-1.9.3-3.8.8-5.6 1.2-13.4 2.8-25.9 6.6-37.1 11.2-1.9-2.6-4.4-4.7-7.1-6.4 6.8-5.3 14.3-11.8 18.3-20.4 1.3-2.8 2.9-6.3 2.9-10 0-3.1-1.2-6-2.8-8.1-1.8-2.5-4-4.5-7.1-5.1-4.3-.8-8.3.5-12.1 2.3-4.6 2-9.1 4.5-13 7.5-4.2 3.2-8 6.9-12 10.4-2.3 2-4.5 4.3-6.7 6.9-.5.5-1.6 2.3-2.4 2.1-.6-.1-1.1-2.7-1.4-3.3-1.3-2.5-3.7-5.2-6.7-6.4-.9-.4-2.3-1-3.6-.7-2 .4-3.1 3.3-2.1 5.5.6 1.4 2 1.5 2.8 2.4 1.7 2.2 1.7 6.8 1.6 10.7 0 1.3 0 2.7-.2 3.8-.2 1-1.1 1.9-1.7 2.9-5.3 8.2-10.5 16.7-14.5 26.3-.9 2.1-1.6 4.5-2.3 6.8-.7 2.3-1.4 4.8-1.7 7.3-.3 2.6-.3 5.7-.6 8.7v.8c.1 1.8.3 3.2.8 4.7.5 1.2 1.2 2.7 2.4 3 2.5.6 3.8-1.6 4.8-3 .7-1 1.5-2 2.1-2.9 2.9-4.2 4.8-8.3 7.1-12.8 1.1-2.2 2.5-4.3 3.3-6.7 1.7-5.1 3.5-9.9 4.8-15 .7-2.6 1.4-5.2 2-7.9.7-2.7 1.1-5.4 1.8-8.2.3-1.4 1.3-2.4 2.3-3.6 2.1-2.7 4.9-6 7-8.3 3.8-4.1 7.4-8.3 11.6-12 4.2-3.7 8.6-7 13.3-10 2.7-1.7 7.2-4.8 10.6-3.6 1.5.5 2.9 2.5 3 4.7.2 3.8-1.6 7.2-3.2 9.7-.8 1.3-1.8 2.5-2.8 3.7-1 1.2-1.9 2.4-3 3.4-2.4 2.2-4.5 4.1-6.7 6.2-1 1-2.2 2.2-3.3 3.1-1.1.9-2.7 2.2-3.9 2.6-.6.2-1.3.1-2 .2-.5.1-1 .3-1.5.5-1.1.3-2.1.4-3.2.7-1.9.5-3.9 1.3-5.7 2.2-1.6.8-3.5 1.8-4.9 2.9-1.3 1-3.3 2.4-3.2 4.7.2 2.4 3.3 3.2 5.9 3.3 3.2.1 5.2-.7 7.3-1.6 1.3-.6 2.6-1.1 3.8-1.7 2.5-1.2 4.8-2.9 7.1-3.9.2.3.4.4.7.6 2.1 1.3 3.9 3.1 5.2 5.1-11.6 5.5-22.7 12.2-32 20.8-6.8 6.3-12.8 13.6-16.4 23.3-1.1 3-2.2 7.5-1.2 11.3.3 1.1.8 1.7 1.2 2.9 1.2 1.3 2.3 2.3 4.1 3 3.7 1.5 9.1.8 12.8-.4 3.9-1.3 7.3-2.8 10.4-4.5 6.6-3.5 12.3-7.9 17.2-12.7 5-4.8 9.9-10.3 13.5-16.4 1.7-2.9 3.5-6.6 4.4-10.5.9-4.2.3-9.3-1-13 5.5-2.2 12.2-4.8 17.7-6.3.3.8-.1 1.5-.3 2-.9 1.8-1.7 3.2-2.5 5.1-.8 2-2.1 5.7-.9 8.3 1.1 2.4 3.9 3.3 6.3 3.7 2.9.5 5.6-1.3 7.9-2.8 1-.7 2.2-1.5 3.4-2.4.5-.3 3.3-2.2 3.8-1.8.4.3 0 2.2.2 2.9.3 1.5 1.3 2.4 2.5 2.9 2.5 1.1 6.4-.5 8.3-1.4 4.4-2.1 8.9-4.7 12.6-7.3.8-.5 1.5-1.4 2.4-1.4.2 1.3-.5 3.3-.3 5.3.1 1.3.8 1.9-.5 2.6l-3.6 2.1c-2.4 1.4-4.7 2.9-7 4.5-4.6 3.1-9 6.5-13.2 10.1-.9.8-1.7 1.7-2.6 2.6-4.1 3.7-7.7 8-10.8 12.8-.7 1.2-1.2 2.6-2 3.9-1.9 3.5-3.6 9.7-1.3 14.4.7 1.5 2 2.9 3.1 4.2 3.2 3.5 9.7 4.9 14.1 5.4 6 .7 12.4-.1 17.9-2.8 3.3-1.7 6.5-2.9 9.3-5.1 1.4-1.1 2.9-1.9 4.2-2.9 5.5-4.1 9.6-9.5 13-15.8.9-1.6 1.7-3.2 2.4-4.8 3.6-8.3 7-17.4 6.1-29.5-.1-1-.2-2.2-.2-3.4 0-1 .1-2.5.4-3.2.4-.9 2.6-1.5 3.8-1.9 3-1.2 5.4-2 8.3-3.1 1.1-.4 3.4-1.6 4.2-1.4.5.1.6.9.9 1.5.8 2 1.9 3.1 2.7 4.8-1 1.3-2.7 1.5-4.1 2.1-2.8 1.3-5.6 2.8-7.8 4.7-1.8 1.5-4.7 4.1-2.5 6.7.6.8 2.7 2 3.4 2 4.7.4 8.2-1.3 11.9-3.3 3.3-1.8 6.9-4.1 8-7.5.2-.6.1-1.9.3-2.4.3-.8 1.9-1.3 2.9-1.7 2.4-1.1 4-1.7 6.2-3 .6-.3 2.4-1.9 3-1.3.4.4-.2 2-.5 2.8-.8 2.5-2.4 6-1.2 8.8.6 1.3 2.1 2.3 3.8 2.4 3.3.1 5.7-1.6 7.8-2.8.8-.4 1.5-.9 2.3-1.3.7-.4 1.4-1.3 2.4-1.1.4.7.2 1.5.3 2.1.3 2.1 1.2 3.9 2.6 4.9 2.1 1.5 5.2 1.2 8.2.4 3.9-1 7.1-2.8 9.9-5.1.6-.5 2.2-2.3 3-2 .5.1.5 1.3.8 2 .2.5.7 1.2 1 1.9 1 2.4 2.7 3.9 5.9 2.9 2.2-.7 3.9-2.6 6.4-2.9.8.3 1 1.5 1.6 2.2.8.9 2.2 1.7 3.6 2 5.9 1.4 12-.5 17.2-1.7 5-1.2 10.4-3.2 16.4-3.6 6.4-.5 12.7.5 19.4.1 4.8-.3 8.2-1.8 11.4-3.8 1.2-.7 2.4-1.2 2.9-2.2.3-.6.6-2.1.3-2.8-.6-2.3-3.5-1.9-5.3-1.3zm-68.3-18.9c1.9-4.6 4.5-9 7.5-12.6 1-1.2 2.4-2.3 3.3-3.6.2-.2.3-.5.6-.6s.6-.1.7.2c.1.2 0 .4-.1.6-2.9 6.1-6.2 11.9-10.7 17.1-.6.7-1.2 1.7-2.1 2-.3-1.2.4-2.2.8-3.1zM182.3 140c-.5 2.5-1.5 5.3-2.4 7.6-.8 2-1.8 3.9-2.7 6-.3.6-.4 1.5-1.1 1.7-.5-.7 0-1.5.2-2.1.2-.7.4-1.5.6-2.2.7-2.8 2.1-5.4 3.2-8.1.6-1.4 1.3-2.9 2.1-3.9h.1c.5.1 0 .8 0 1zm54.6.1c-1.6 5.8-4.8 10.1-8.2 14.3-6.6 8.2-14.9 14.7-24.8 20-1.2.6-2.5 1.2-3.8 1.8-3.2 1.3-9.9 2.6-10.3-2.1-.1-1.4.7-3.1 1.2-4.5 1.6-4 4.1-7.3 6.5-10.4 10-12.7 22.8-22.5 39-28.8.1 0 .2-.1.2 0 1.1 3.2 1 6.7.2 9.7zm90.1 4.7c-.8 5.2-2.2 10.7-4.2 15.5-1.4 3.4-2.9 6.6-4.7 9.7-1.8 3.2-4.1 6-6.9 8.5-1.3 1.2-2.9 2.2-4.3 3.3-2.5 2.1-5.8 3.6-8.9 4.8-3.3 1.3-6.8 2.3-10.4 2.6-5 .5-14.4-.1-15.3-6.6-.5-3.1 1.3-7.1 2.3-9 1.3-2.4 3.2-4.9 4.6-6.7 2.9-3.8 6.4-7 9.9-10.2 8.6-7.6 18.4-13.4 28.5-18.7 1.4-.8 2.9-1.5 4.3-2.3 1.1-.5 2.6-1.8 3.8-1.8 1 .1.9 1.3 1 2.1.5 2.6.7 6.4.3 8.8zm87.2-19.9c-3.3 2.8-6.3 6.3-10.3 8.1-.5.2-1.2.5-1.6.1-.2-.9.4-1.6.8-2.3.4-.7.7-1.4 1.1-2 1.7-2.4 4.8-4.7 7.5-6.3.9-.5 2.2-1.3 3.2-1.4.9-.1 1.4.3 1.6.8.3 1.4-1.6 2.4-2.3 3zm23.4 6.1c-.5-.5.1-1.1.3-1.5 1.3-2.4 3.3-4.5 5.7-6 .8-.5 2.4-1.5 3.2-1.5 1.9 0 .3 1.5-.2 2-1.9 2.2-4.5 4-6.9 5.9-.6.6-1.3 1.2-2.1 1.1zm-43.8-19.8c1.7.3 3.4-.3 4.6-1.6 1.2-1.3 1.8-2.9 2.9-4.3.7-.9 1.6-1.8 1.4-2.9-.1-.9-.9-1.6-1.8-1.8-.9-.2-1.8 0-2.7.2-2.7.8-8 3.4-8.2 6.7-.1 1.8 1.8 3.3 3.4 3.7.1-.1.2 0 .4 0z"/></g><g fill="#fff"><path d="M704.5 167.4v-22.2h-36.1v-3.7l36.9-49.7h4.5v48.7h11.5v4.7h-11.5v22.2h-5.3zm0-26.9v-30.6c0-3.6.1-7.1.3-10.5l-.3-.1c-2.3 4.3-4.1 6.9-5.9 9.5l-23.5 31.4v.2h29.4zM730.3 163.4c0-3 2-5.2 4.8-5.2s4.7 2.2 4.7 5.2c0 2.8-1.9 5.2-4.9 5.2-2.7 0-4.7-2.4-4.6-5.2zM796.5 128.5c0 27.1-9.7 40.1-24.8 40.1-11.9 0-22.7-11.6-23-38.7 0-27.5 12-39.4 24.8-39.4 13.2 0 23 12 23 38zm-42.1 1.5c0 21.1 7.2 34 18 34 12.7 0 18.4-14.3 18.4-34.9 0-19.8-5.4-34-18.3-34-10.3 0-18.1 12.6-18.1 34.9zM880.5 84.8v69.6c0 4.2.1 9.1.5 13h-5l-.5-10.6h-.2c-2.9 6.2-9.5 11.9-19.9 11.9-13.8 0-24.1-11.5-24.1-28.1-.1-18.6 11.4-30.2 25.1-30.2 9.7 0 15.8 5 18.3 9.9h.2V84.8h5.6zm-5.6 48.8c0-1.5-.1-3.6-.6-5.1-1.9-7.4-8.5-13.6-17.6-13.6-12.2 0-19.9 10.6-19.9 25 0 12.6 6.3 24.1 19.5 24.1 8 0 15.6-5.4 17.9-14.5.5-1.5.6-2.9.6-4.7v-11.2zM946.9 138.9c0 20.8-14.3 29.8-26.8 29.8-14.4 0-25.6-11.3-25.6-28.7 0-19.1 12.6-29.7 26.4-29.7 15.5 0 26 11.6 26 28.6zm-46.8.7c0 14 9 24.4 20.4 24.4 11.6 0 20.8-10.5 20.8-24.8 0-10.2-5.7-24.3-20.5-24.3-14.3 0-20.7 12.7-20.7 24.7zM999.6 164.9c-2.4 1.2-8.3 3.6-16.4 3.6-16.1 0-26.8-11.7-26.8-28.5 0-17.7 12.1-29.8 28.7-29.8 6.9 0 12.6 2 14.7 3.5l-2 4.5c-2.7-1.5-7-3.3-13.1-3.3-15 0-22.7 11.5-22.7 24.5 0 14.7 9.2 24.2 22.1 24.2 6.6 0 10.9-1.9 14-3.3l1.5 4.6zM1010.6 160c3 1.9 7.6 3.8 12.6 3.8 8.8 0 13-4.8 13-10.6 0-6.2-3.7-9.4-11.7-12.7-9.2-3.5-14.2-8.5-14.2-15.2 0-8 6.4-15.1 17.2-15.1 5.1 0 9.5 1.5 12.3 3.5l-2.1 4.5c-2-1.4-5.6-3.4-11.2-3.4-7.1 0-10.8 4.5-10.8 9.7 0 5.8 4 8.4 11.5 11.5 9.1 3.5 14.4 8 14.4 16.5 0 9.5-7.4 15.9-18.8 15.9-5.4 0-10.5-1.5-14.2-3.8l2-4.6z"/></g></svg>