<?xml version="1.0" encoding="utf-8"?>
<!-- Generator: Adobe Illustrator 17.0.0, SVG Export Plug-In . SVG Version: 6.00 Build 0)  -->
<!DOCTYPE svg PUBLIC "-//W3C//DTD SVG 1.1//EN" "http://www.w3.org/Graphics/SVG/1.1/DTD/svg11.dtd">
<svg version="1.1" id="Layer_1" xmlns="http://www.w3.org/2000/svg" xmlns:xlink="http://www.w3.org/1999/xlink" x="0px" y="0px"
	 width="574px" height="223.231px" viewBox="0 0 574 223.231" enable-background="new 0 0 574 223.231" xml:space="preserve">
<g>
	<path fill="#FEFFFF" d="M318.562,150.814c1.795,0,3.303,0.386,4.36,0.898l0.671-2.275c-0.734-0.384-2.434-0.963-5.127-0.963
		c-6.699,0-11.285,4.584-11.285,11.349c0,7.087,4.586,10.967,10.676,10.967c2.629,0,4.679-0.548,5.707-1.058l-0.576-2.214
		c-1.123,0.546-2.855,0.897-4.555,0.897c-5.258,0-8.303-3.396-8.303-8.688C310.131,154.052,313.497,150.814,318.562,150.814
		L318.562,150.814z M359.922,157.866h-10.45v-9.039h-2.787v21.607h2.787v-10.131h10.45v10.131h2.82v-21.607h-2.82V157.866
		L359.922,157.866z M400.287,161.619c0,4.776-2.05,6.892-5.257,6.892c-2.887,0-5.032-2.051-5.032-6.892v-12.792h-2.82v12.727
		c0,6.702,3.333,9.234,7.757,9.234c4.678,0,8.176-2.726,8.176-9.362v-12.6h-2.823V161.619L400.287,161.619z M436.807,160.145v-0.098
		c2.277-0.767,4.069-2.659,4.069-5.513c0-1.666-0.608-3.141-1.695-4.105c-1.35-1.217-3.271-1.763-6.252-1.763
		c-1.925,0-3.944,0.16-5.353,0.448v21.319h2.786v-9.361h2.629c2.532,0.096,3.686,1.219,4.328,4.201
		c0.608,2.692,1.091,4.52,1.441,5.16h2.886c-0.449-0.834-0.962-2.917-1.666-5.931C439.468,162.261,438.473,160.722,436.807,160.145
		L436.807,160.145z M433.216,158.96h-2.854v-7.889c0.447-0.129,1.412-0.257,2.758-0.257c2.949,0.033,4.969,1.25,4.969,4.04
		C438.089,157.325,436.198,158.96,433.216,158.96L433.216,158.96z M474.543,150.814c1.795,0,3.303,0.386,4.36,0.898l0.675-2.275
		c-0.74-0.384-2.439-0.963-5.131-0.963c-6.698,0-11.284,4.584-11.284,11.349c0,7.087,4.586,10.967,10.676,10.967
		c2.628,0,4.682-0.548,5.703-1.058l-0.575-2.214c-1.121,0.546-2.854,0.897-4.55,0.897c-5.26,0-8.305-3.396-8.305-8.688
		C466.112,154.052,469.477,150.814,474.543,150.814L474.543,150.814z M515.902,148.827v9.039h-10.45v-9.039h-2.79v21.607h2.79
		v-10.131h10.45v10.131h2.82v-21.607H515.902L515.902,148.827z"/>
	<path fill="#FFFFFF" d="M562.784,102.261c-5.436,1.916-10.084,3.552-17.384,3.197c-4.341-0.212-8.504-0.808-12.652-1.249
		c-4.196-0.448-8.292-1.252-12.656-1.252c-16.316,0-27.647,4.842-39.631,9.038c-1.59,0.557-3.441,1.729-5.145,0.974
		c0.654-1.328,2.06-2.093,3.197-2.919c6.047-4.399,11.132-8.821,15.437-15.158c1.68-2.475,3.184-5.584,2.363-9.317
		c-0.502-2.287-2.099-4.22-4.311-5.284c-2.546-1.226-9.449-0.997-12.098-0.278c-3.372,0.914-6.354,2.711-9.459,4.171
		c-3.041,1.432-5.62,3.552-8.202,5.563c-3.846,2.996-7.343,6.496-10.011,10.43c-0.916,1.347-1.488,3.129-2.642,4.31
		c-0.989,1.008-2.751,1.714-4.312,2.642c-1.349,0.8-3.409,2.376-4.867,2.225c-2.072-0.212-3.64-4.052-3.2-6.675
		c0.284-1.703,2.388-3.283,3.2-4.171c2.81-3.07,4.579-4.682,7.23-7.509c1.329-1.418,2.335-2.964,3.336-4.173
		c4.163-5.016,8.306-10.237,13.351-16.408c2.112-2.584,3.98-5.828,5.978-8.761c2.004-2.939,3.908-6.235,5.426-9.455
		c0.704-1.495,1.878-2.99,2.503-4.867c1.728-5.187,4.761-12.206,0.697-17.522c-1.296-1.689-3.763-4.041-6.259-4.172
		c-1.494-0.078-2.847,1.227-4.033,2.086c-8.22,5.945-14.961,12.486-20.858,20.163c-4.953,6.444-9.37,13.846-13.212,21.832
		c-0.816,1.701-2.241,7.116-4.033,7.788c-0.985,0.37-2.334,0.192-3.475,0.278c-6.352,0.482-10.613,2.116-15.02,4.171
		c-1.867,0.872-3.755,1.44-5.283,2.365c-3.101,1.876-6.255,4.036-9.039,6.257c-2.79,2.227-5.031,5.156-7.925,7.37
		c-2.37,1.813-6.155,3.113-9.178,4.45c-1.272,0.562-2.589,1.286-4.589,1.947c-1.534,0.504-4.116,1.602-5.005,0.696
		c-0.906-0.918,0.459-4.705,0.972-6.12c0.833-2.303,1.802-4.167,2.225-5.84c1.141-4.518-0.397-9.628-4.172-10.985
		c-2.565-0.922-4.903,0.052-7.092,1.113c-1.461,0.707-3.134,1.254-4.312,1.947c-1.58,0.93-2.737,2.488-4.727,3.614
		c-1.482,0.838-3.408,1.574-5.145,2.365c-3.792,1.723-6.145,3.356-9.875,5.283c-1.412,0.729-4.109,2.512-5.283,2.365
		c-1.193-0.15-2.566-2.618-2.781-4.033c-0.528-3.453,2.06-5.471,4.034-7.092c1.663-1.368,3.815-3.513,6.675-2.92
		c1.164,0.242,1.389,1.075,2.083,1.947c2.262,2.834,6.906,1.364,9.316-1.808c0.691-0.907,1.21-2.051,1.812-3.059
		c0.608-1.024,1.355-2.146,1.666-3.198c1.597-5.408-3.73-7.764-8.483-7.509c-1.167,0.062-2.477,0.522-3.753,0.694
		c-4.179,0.567-7.466,1.456-10.986,2.503c-11.79,3.507-22.243,6.829-32.956,11.821c-1.676,0.778-5.052,2.766-6.397,2.641
		c-1.679-0.156-2.281-2.647-4.311-3.059c-2.701-0.546-5.541,1.143-7.23,1.947c-0.88,0.418-1.795,0.657-2.503,1.112
		c-1.749,1.126-4.844,4.597-5.839,6.258c-1.015,1.685-0.952,3.266-2.228,4.59c-0.942,0.98-2.85,1.772-4.45,2.642
		c-2.678,1.458-7.105,3.615-9.594,4.867c-1.392,0.701-4.242,2.38-5.145,0.277c0.588-3.6,2.764-6.344,4.728-8.898
		c4.043-5.261,7.578-10.526,11.681-15.714c2.037-2.578,4.325-5.214,5.009-8.761c1.028-5.363-1.418-12.672-5.703-13.906
		c-2.728-0.785-5.961,0.476-6.397,2.642c-0.149,0.75,0.234,1.966,0.139,2.92c-0.397,4.029-2.513,8.736-4.728,10.985
		c-1.6,1.625-3.669,3.073-5.561,4.729c-9.135,7.99-18.951,15.631-30.179,21.275c-2.721,1.369-4.212,1.835-7.088,3.199
		c-0.889,0.42-2.208,0.988-3.895,1.251c-5.498,0.853-2.985-3.048-1.392-5.702c0.969-1.612,1.685-3.019,2.504-4.171
		c2.095-2.951,4.303-5.332,5.424-7.927c0.545-1.262,0.946-3.427,0.555-5.005c-0.423-1.71-1.587-2.374-2.642-3.06
		c-0.968-0.628-1.947-1.475-3.615-1.529c-1.857-0.061-3.146,2.411-4.451,3.615c-4.381,4.042-8.117,7.126-12.654,10.847
		c-4.182,3.428-8.186,7.334-13.21,10.151c-1.158,0.65-4.276,2.784-5.702,1.668c-1.339-1.048,0.752-4.701,1.809-6.257
		c1.213-1.789,2.62-3.369,4.032-4.729c8.352-8.046,18.796-13.733,30.87-17.104c2.721-0.76,4.764-1.085,5.564-3.477
		c1.194-3.576-3.884-6.446-6.257-7.37c-1.364-0.531-4.157-0.779-6.258-0.696c-2.151,0.086-4.292,0.03-6.119,0.278
		c-3.159,0.428-6.397,1.419-9.595,2.086c-22.754,4.742-44.145,11.237-63.271,19.05c-3.21-4.484-7.442-7.947-12.099-10.985
		c11.655-9.001,24.296-20.146,31.15-34.765c2.255-4.81,5.005-10.769,5.005-17.104c0-5.34-2.123-10.142-4.728-13.766
		c-2.384-3.316-5.7-7.221-10.29-8.343c-2.193-0.538-4.242-0.225-6.536-0.835c-0.417,0-0.834,0-1.251,0
		c-8.963,0.977-15.984,4.621-22.527,8.344c-3.343,1.901-6.827,3.435-9.874,5.562c-9.015,6.293-16.553,13.561-25.031,20.997
		c-3.88,3.404-7.703,7.366-11.402,11.682c-0.775,0.904-2.69,3.963-4.034,3.615c-0.948-0.246-1.798-4.608-2.363-5.702
		c-2.238-4.331-6.383-8.795-11.403-10.985c-1.574-0.687-3.923-1.668-6.119-1.251c-3.391,0.643-5.329,5.585-3.616,9.456
		c1.06,2.394,3.492,2.556,4.728,4.172c2.847,3.72,2.968,11.573,2.781,18.216c-0.059,2.133,0.037,4.669-0.416,6.535
		c-0.399,1.64-1.879,3.261-2.92,4.868c-9.037,13.954-17.942,28.402-24.753,44.776c-1.497,3.599-2.712,7.731-3.893,11.543
		c-1.227,3.959-2.365,8.17-2.919,12.514c-0.567,4.436-0.593,9.703-0.974,14.88c0,0.465,0,0.926,0,1.392
		c0.207,3.042,0.46,5.514,1.389,7.926c0.814,2.109,2.045,4.592,4.173,5.146c4.216,1.096,6.442-2.704,8.203-5.146
		c1.243-1.72,2.595-3.367,3.616-4.867c4.876-7.16,8.242-14.16,12.098-21.832c1.894-3.766,4.238-7.399,5.564-11.402
		c2.861-8.648,5.921-16.946,8.203-25.587c1.175-4.447,2.311-8.941,3.477-13.489c1.16-4.516,1.861-9.181,3.059-13.906
		c0.587-2.31,2.263-4.028,3.893-6.118c3.641-4.67,8.325-10.246,11.959-14.185c5.689-6.165,10.788-12.491,16.965-17.938
		c6.06-5.343,12.185-10.406,19.33-15.435c3.152-2.218,6.598-4.76,10.709-6.674c3.4-1.585,9.263-4.966,13.487-3.476
		c2.597,0.915,4.935,4.328,5.145,7.926c0.383,6.489-2.701,12.312-5.421,16.548c-1.422,2.214-3.025,4.263-4.729,6.257
		c-1.686,1.975-3.276,4.124-5.145,5.841c-4.044,3.717-7.661,7.017-11.403,10.568c-1.72,1.633-3.754,3.675-5.7,5.284
		c-1.916,1.583-4.581,3.822-6.675,4.45c-0.985,0.295-2.289,0.218-3.337,0.417c-0.84,0.16-1.657,0.585-2.504,0.834
		c-1.796,0.531-3.65,0.757-5.424,1.252c-3.153,0.88-6.569,2.255-9.733,3.754c-2.733,1.295-5.886,3.125-8.344,5.006
		c-2.132,1.631-5.682,4.169-5.423,8.065c0.272,4.075,5.703,5.444,10.012,5.561c5.372,0.147,8.862-1.166,12.517-2.779
		c2.204-0.975,4.374-1.929,6.396-2.922c4.257-2.086,8.156-4.988,12.098-6.674c0.271,0.579,0.624,0.675,1.112,0.974
		c3.599,2.202,6.656,5.214,8.901,8.623c-19.799,9.445-38.728,20.796-54.51,35.458c-11.529,10.711-21.745,23.193-27.951,39.631
		c-1.945,5.15-3.817,12.804-2.086,19.33c0.517,1.95,1.347,2.936,2.086,4.866c2.13,2.273,3.941,3.976,6.952,5.145
		c6.388,2.481,15.525,1.344,21.832-0.694c6.713-2.169,12.502-4.825,17.801-7.646c11.182-5.958,20.921-13.445,29.34-21.557
		c8.565-8.248,16.922-17.605,22.945-27.95c2.918-5.012,5.97-11.167,7.509-17.938c1.612-7.097,0.528-15.815-1.669-22.11
		c9.425-3.822,20.798-8.162,30.174-10.708c0.478,1.364-0.102,2.51-0.555,3.477c-1.462,3.113-2.98,5.462-4.311,8.76
		c-1.389,3.448-3.644,9.639-1.53,14.183c0.878,1.889,2.536,3.561,4.172,4.45c0.897,0.489,1.901,0.513,2.92,0.835
		c0.958,0.303,1.852,0.783,2.782,0.974c5.681,1.159,10.74-2.312,14.324-4.728c1.759-1.188,3.7-2.574,5.839-4.034
		c0.79-0.538,5.594-3.67,6.537-3.06c0.742,0.484,0.042,3.714,0.278,4.868c0.506,2.479,2.271,4.156,4.309,5.006
		c4.327,1.804,10.867-0.782,14.186-2.362c7.512-3.582,15.172-7.996,21.414-12.517c1.292-0.934,2.486-2.412,4.172-2.362
		c0.37,2.132-0.853,5.652-0.556,9.038c0.093,1.087,0.794,2.198,0.556,3.198c-0.291,1.219-4.285,3.046-5.981,4.032
		c-2.334,1.36-4.556,2.532-6.259,3.756c-4.07,2.921-8.116,5.586-12.097,8.063c-4.076,2.541-7.873,5.497-11.541,8.483
		c-3.771,3.072-7.007,6.617-10.428,9.733c-6.987,6.362-13.19,13.57-18.356,21.834c-1.266,2.024-2.108,4.36-3.337,6.674
		c-3.217,6.045-6.164,16.461-2.225,24.474c1.235,2.509,3.332,4.961,5.285,7.093c0.914,1,2.223,1.747,3.475,2.641
		c3.09,2.206,5.659,3.185,9.874,4.312c6.293,1.681,13.163,2.778,20.996,2.919c0.419,0,0.836,0,1.252,0
		c7.406-1.031,13.476-2.628,19.05-5.424c5.646-2.828,11.039-4.891,15.852-8.62c2.387-1.85,4.91-3.265,7.231-5.006
		c9.297-6.971,16.276-16.141,22.111-26.839c1.451-2.664,2.847-5.467,4.034-8.205c6.096-14.084,11.869-29.654,10.427-50.2
		c-0.119-1.696-0.337-3.83-0.278-5.838c0.053-1.786,0.139-4.245,0.698-5.424c0.688-1.462,4.5-2.473,6.394-3.199
		c5.161-1.974,9.228-3.354,14.188-5.284c1.841-0.718,5.815-2.771,7.091-2.363c0.8,0.255,1.101,1.547,1.528,2.641
		c1.342,3.446,3.189,5.35,4.588,8.205c-1.683,2.146-4.586,2.524-6.953,3.615c-4.724,2.175-9.481,4.761-13.35,7.926
		c-3.022,2.476-8.001,6.996-4.311,11.403c1.085,1.294,4.585,3.363,5.842,3.477c7.932,0.711,14.057-2.272,20.303-5.703
		c5.65-3.104,11.711-6.981,13.628-12.792c0.317-0.974,0.202-3.245,0.556-4.172c0.516-1.352,3.17-2.173,4.866-2.921
		c4.109-1.803,6.841-2.941,10.566-5.144c0.942-0.554,4.14-3.228,5.148-2.225c0.605,0.602-0.383,3.328-0.833,4.728
		c-1.375,4.26-4.139,10.261-2.089,15.02c0.965,2.231,3.577,3.952,6.539,4.032c5.68,0.151,9.77-2.674,13.347-4.729
		c1.286-0.739,2.593-1.471,3.895-2.227c1.217-0.702,2.391-2.169,4.03-1.945c0.721,1.212,0.4,2.55,0.56,3.615
		c0.522,3.529,2.05,6.591,4.449,8.343c3.577,2.618,8.92,1.999,13.906,0.696c6.582-1.721,12.134-4.846,16.825-8.622
		c1.107-0.891,3.752-3.905,5.143-3.475c0.774,0.238,0.894,2.192,1.393,3.336c0.406,0.934,1.144,2.018,1.669,3.199
		c1.775,4.01,4.517,6.639,10.012,4.866c3.809-1.227,6.682-4.377,10.847-5.004c1.372,0.539,1.753,2.639,2.781,3.755
		c1.389,1.507,3.676,2.881,6.119,3.476c10.11,2.462,20.528-0.819,29.339-2.921c8.494-2.025,17.639-5.381,27.953-6.117
		c10.911-0.783,21.662,0.799,33.095,0.139c8.14-0.473,14.035-3.113,19.467-6.398c1.98-1.197,4.09-2.121,4.867-3.754
		c0.485-1.019,1.021-3.506,0.559-4.728C570.752,100.563,565.889,101.166,562.784,102.261L562.784,102.261z M446.391,69.999
		c3.264-7.892,7.641-15.253,12.795-21.554c2.126-2.599,4.355-5.253,6.672-7.092c0.096-0.074,0.599-0.55,0.837-0.139
		c0.84,0.734-0.145,1.736-0.417,2.364c-4.612,10.707-10.517,19.788-17.661,28.09c-1.045,1.216-1.961,2.898-3.614,3.337
		C444.619,73.262,445.743,71.563,446.391,69.999L446.391,69.999z M27.41,122.007c-0.872,4.238-2.581,8.969-4.171,12.932
		c-1.394,3.469-3.088,6.725-4.589,10.151c-0.449,1.026-0.71,2.501-1.947,2.921c-0.911-1.115,0.08-2.52,0.417-3.617
		c0.369-1.197,0.656-2.549,0.974-3.754c1.257-4.752,3.563-9.178,5.424-13.767c0.989-2.438,2.268-4.939,3.615-6.675
		c0.047,0,0.094,0,0.139,0C28.205,120.489,27.493,121.604,27.41,122.007L27.41,122.007z M120.44,122.146
		c-2.759,9.882-8.199,17.212-13.906,24.335c-11.183,13.955-25.438,25.032-42.274,34.068c-1.983,1.064-4.178,2.093-6.535,3.06
		c-5.521,2.268-16.838,4.398-17.522-3.615c-0.198-2.319,1.147-5.31,2.085-7.647c2.746-6.84,7.055-12.478,11.125-17.662
		c17.025-21.684,38.821-38.275,66.471-49.088c0.237,0.031,0.359-0.236,0.416,0C121.979,110.992,121.877,116.999,120.44,122.146
		L120.44,122.146z M273.962,130.071c-0.78,4.814-1.947,8.771-3.061,13.073c-0.36,1.387-1.031,2.561-1.392,3.893
		c-0.38,1.409-0.225,2.507-0.694,4.17c-0.489,1.732-1.26,3.561-1.947,5.285c-2.324,5.846-4.887,11.229-7.925,16.549
		c-3.075,5.377-6.913,10.216-11.681,14.461c-2.258,2.009-4.982,3.701-7.37,5.703c-4.057,3.398-8.368,5.518-13.631,7.507
		c-1.95,0.739-3.729,1.778-5.561,2.503c-0.559,0.221-1.306,0.175-1.947,0.418c-0.552,0.208-0.903,0.711-1.389,0.833
		c-1.61,0.405-3.624,0.319-5.564,0.696c-9.208,1.793-22.143,0.78-27.253-4.032c-1.431-1.347-3.252-3.983-3.616-6.397
		c-0.795-5.257,2.142-12.02,3.894-15.297c2.178-4.068,5.378-8.266,7.786-11.402c5.549-7.222,12.38-13.355,19.189-19.049
		c3.478-2.91,6.735-6.198,10.431-8.764c7.571-5.246,15.142-10.004,23.5-14.738c2.017-1.143,4.228-2.162,6.258-3.338
		c2.033-1.178,3.968-2.602,5.978-3.477c2.357-1.023,4.824-1.802,7.092-2.919c2.08-1.025,3.954-2.921,6.259-3.617
		c0.066-0.018,0.135-0.116,0.277-0.139c1.736-0.28,1.64,0.77,2.086,3.476C274.365,119.624,274.61,126.057,273.962,130.071
		L273.962,130.071z M422.475,96.281c-5.538,4.753-10.732,10.705-17.522,13.768c-0.933,0.42-2.106,0.931-2.781,0.137
		c-0.416-1.456,0.685-2.698,1.393-3.893c0.661-1.127,1.206-2.465,1.947-3.476c2.929-4.007,8.169-7.969,12.791-10.707
		c1.558-0.922,3.779-2.219,5.422-2.363c1.475-0.131,2.443,0.541,2.642,1.39C426.918,93.489,423.714,95.215,422.475,96.281
		L422.475,96.281z M462.383,106.709c-0.856-0.815,0.143-1.896,0.556-2.64c2.258-4.055,5.617-7.681,9.736-10.152
		c1.303-0.784,4.146-2.477,5.422-2.503c3.29-0.068,0.503,2.573-0.277,3.477c-3.293,3.803-7.624,6.823-11.819,10.012
		C464.929,105.715,463.771,106.79,462.383,106.709L462.383,106.709z M387.707,72.919c2.314,0.457,6.1-1.177,7.65-2.225
		c2.129-1.439,2.026-3.682,3.339-6.119c1.121-2.087,4.536-3.101,4.169-6.675c-0.102-1.004-0.965-2.536-2.083-2.919
		c-0.697-0.24-4.433-0.382-5.009-0.278c-1.408,0.254-3.074,1.342-4.589,2.085c-1.458,0.717-2.823,1.521-4.033,2.504
		c-1.878,1.528-5.644,4.338-5.839,7.231C381.085,69.918,384.827,72.35,387.707,72.919L387.707,72.919z"/>
</g>
</svg>
